<?xml version="1.0" encoding="UTF-8"?>
<svg version="1.1" xmlns="http://www.w3.org/2000/svg" width="832" height="978">
<path d="M0 0 C274.56 0 549.12 0 832 0 C832 322.74 832 645.48 832 978 C557.44 978 282.88 978 0 978 C0 655.26 0 332.52 0 0 Z M79 79 C79 349.6 79 620.2 79 899 C301.42 899 523.84 899 753 899 C753 628.4 753 357.8 753 79 C530.58 79 308.16 79 79 79 Z " fill="#FFFFFF" transform="translate(0,0)"/>
<path d="M0 0 C89.76 0 179.52 0 272 0 C272 102.96 272 205.92 272 312 C182.24 312 92.48 312 0 312 C0 209.04 0 106.08 0 0 Z M62 62 C62 124.04 62 186.08 62 250 C110.84 250 159.68 250 210 250 C210 187.96 210 125.92 210 62 C161.16 62 112.32 62 62 62 Z " fill="#FFFFFF" transform="translate(144,134)"/>
<path d="M0 0 C179.19 0 358.38 0 543 0 C543 26.07 543 52.14 543 79 C363.81 79 184.62 79 0 79 C0 52.93 0 26.86 0 0 Z " fill="#FFFFFF" transform="translate(144,734)"/>
<path d="M0 0 C179.19 0 358.38 0 543 0 C543 26.07 543 52.14 543 79 C363.81 79 184.62 79 0 79 C0 52.93 0 26.86 0 0 Z " fill="#FFFFFF" transform="translate(145,550)"/>
</svg>
